# xmcd
#
# Track frame offsets: 
#        150
#        12632
#        28838
#        39679
#        50621
#        65609
#        81664
#        99143
#        114191
#        126591
#        136725
#        153229
#        166273
#
# Disc length: 2424 seconds
#
# Revision: 0
# Processed by: cddbd v1.5.2PL0 Copyright (c) Steve Scherf et al.
# Submitted via: ExactAudioCopy v0.99pb4
#
DISCID=ae09760d
DTITLE=UpHill Climb - Never Ending Battle
DYEAR=2010
DGENRE=Bluegrass
TTITLE0=Streets of Gold
TTITLE1=Never Ending Battle
TTITLE2=Lost in Sin
TTITLE3=My Lord Keeps a Record
TTITLE4=Moses Did What God Commanded
TTITLE5=The Carpenter
TTITLE6=Reach Out and Touch the Lord
TTITLE7=Cry From the Cross
TTITLE8=Brush Arbors
TTITLE9=Matthew 24
TTITLE10=Land of Living
TTITLE11=I'm Going Up
TTITLE12=Cradle to Cross to Crown
EXTD=
EXTT0=
EXTT1=
EXTT2=
EXTT3=
EXTT4=
EXTT5=
EXTT6=
EXTT7=
EXTT8=
EXTT9=
EXTT10=
EXTT11=
EXTT12=
PLAYORDER=
